<mxfile host="app.diagrams.net" modified="2023-12-11T12:57:36.971Z" agent="Mozilla/5.0 (Macintosh; Intel Mac OS X 10_15_7) AppleWebKit/537.36 (KHTML, like Gecko) Chrome/119.0.0.0 Safari/537.36" version="21.8.1" etag="LMopsWB6V5vCriwySghb" type="github">
  <diagram name="Page-1" id="O-cZfkb_LRN1gSu7xxc6">
    <mxGraphModel>
      <root>
        <mxCell id="0" />
        <mxCell id="1" parent="0" />
      </root>
    </mxGraphModel>
  </diagram>
</mxfile>
